<svg xmlns="http://www.w3.org/2000/svg" xmlns:xlink="http://www.w3.org/1999/xlink" width="106" zoomAndPan="magnify" viewBox="0 0 79.5 37.5" height="50" preserveAspectRatio="xMidYMid meet" version="1.0"><path fill="#1f2e4c" d="M 31.929688 12.746094 L 32.917969 12.746094 L 37.171875 22.265625 L 36.039062 22.265625 L 34.945312 19.765625 L 29.863281 19.765625 L 28.753906 22.265625 L 27.675781 22.265625 Z M 34.53125 18.792969 L 32.410156 13.988281 L 30.273438 18.792969 Z M 34.53125 18.792969 " fill-opacity="1" fill-rule="nonzero"/><path fill="#1f2e4c" d="M 37.886719 20.886719 L 38.542969 20.105469 C 39.515625 20.996094 40.449219 21.441406 41.742188 21.441406 C 42.996094 21.441406 43.824219 20.765625 43.824219 19.835938 L 43.824219 19.808594 C 43.824219 18.929688 43.355469 18.429688 41.394531 18.011719 C 39.25 17.539062 38.261719 16.835938 38.261719 15.285156 L 38.261719 15.257812 C 38.261719 13.773438 39.554688 12.679688 41.328125 12.679688 C 42.691406 12.679688 43.664062 13.070312 44.609375 13.839844 L 43.996094 14.664062 C 43.128906 13.949219 42.261719 13.636719 41.304688 13.636719 C 40.089844 13.636719 39.316406 14.3125 39.316406 15.164062 L 39.316406 15.191406 C 39.316406 16.082031 39.796875 16.578125 41.851562 17.027344 C 43.929688 17.484375 44.890625 18.253906 44.890625 19.699219 L 44.890625 19.726562 C 44.890625 21.34375 43.558594 22.398438 41.703125 22.398438 C 40.222656 22.398438 39.007812 21.898438 37.886719 20.886719 Z M 37.886719 20.886719 " fill-opacity="1" fill-rule="nonzero"/><path fill="#1f2e4c" d="M 49.199219 13.800781 L 46.0625 13.800781 L 46.0625 12.8125 L 53.402344 12.8125 L 53.402344 13.800781 L 50.265625 13.800781 L 50.265625 22.265625 L 49.199219 22.265625 Z M 49.199219 13.800781 " fill-opacity="1" fill-rule="nonzero"/><path fill="#1f2e4c" d="M 55.265625 12.8125 L 59.28125 12.8125 C 60.429688 12.8125 61.351562 13.164062 61.9375 13.757812 C 62.390625 14.21875 62.65625 14.878906 62.65625 15.621094 L 62.65625 15.648438 C 62.65625 17.214844 61.589844 18.132812 60.125 18.402344 L 62.992188 22.265625 L 61.695312 22.265625 L 58.988281 18.59375 L 56.320312 18.59375 L 56.320312 22.265625 L 55.265625 22.265625 Z M 59.1875 17.632812 C 60.589844 17.632812 61.589844 16.90625 61.589844 15.691406 L 61.589844 15.664062 C 61.589844 14.503906 60.710938 13.800781 59.203125 13.800781 L 56.320312 13.800781 L 56.320312 17.632812 Z M 59.1875 17.632812 " fill-opacity="1" fill-rule="nonzero"/><path fill="#1f2e4c" d="M 68.191406 12.746094 L 69.179688 12.746094 L 73.433594 22.265625 L 72.300781 22.265625 L 71.207031 19.765625 L 66.125 19.765625 L 65.015625 22.265625 L 63.9375 22.265625 Z M 70.792969 18.792969 L 68.671875 13.988281 L 66.539062 18.792969 Z M 70.792969 18.792969 " fill-opacity="1" fill-rule="nonzero"/><path fill="#6a89aa" d="M 27.675781 24.246094 L 27.976562 24.246094 L 27.976562 26 L 27.675781 26 Z M 27.675781 24.246094 " fill-opacity="1" fill-rule="nonzero"/><path fill="#6a89aa" d="M 29.699219 24.246094 L 30.003906 24.246094 L 30.003906 26 L 29.75 26 L 28.792969 24.75 L 28.792969 26 L 28.492188 26 L 28.492188 24.246094 L 28.773438 24.246094 L 29.699219 25.457031 Z M 29.699219 24.246094 " fill-opacity="1" fill-rule="nonzero"/><path fill="#6a89aa" d="M 30.773438 24.792969 C 30.785156 24.820312 30.804688 24.84375 30.835938 24.863281 C 30.867188 24.886719 30.90625 24.90625 30.960938 24.925781 C 31.015625 24.941406 31.082031 24.960938 31.167969 24.980469 C 31.257812 25.003906 31.339844 25.03125 31.410156 25.058594 C 31.480469 25.089844 31.539062 25.121094 31.585938 25.164062 C 31.628906 25.203125 31.667969 25.253906 31.691406 25.308594 C 31.714844 25.359375 31.726562 25.425781 31.726562 25.5 C 31.726562 25.582031 31.710938 25.65625 31.679688 25.722656 C 31.648438 25.789062 31.609375 25.84375 31.554688 25.886719 C 31.5 25.933594 31.433594 25.96875 31.359375 25.992188 C 31.28125 26.015625 31.199219 26.027344 31.109375 26.027344 C 30.976562 26.027344 30.847656 26.003906 30.726562 25.957031 C 30.601562 25.910156 30.488281 25.839844 30.386719 25.746094 L 30.570312 25.523438 C 30.652344 25.597656 30.738281 25.652344 30.824219 25.691406 C 30.910156 25.730469 31.007812 25.75 31.117188 25.75 C 31.210938 25.75 31.285156 25.730469 31.339844 25.691406 C 31.394531 25.652344 31.421875 25.597656 31.421875 25.527344 C 31.421875 25.496094 31.417969 25.46875 31.40625 25.441406 C 31.394531 25.417969 31.375 25.394531 31.347656 25.375 C 31.320312 25.351562 31.277344 25.332031 31.226562 25.316406 C 31.175781 25.296875 31.113281 25.277344 31.03125 25.257812 C 30.9375 25.234375 30.855469 25.210938 30.785156 25.183594 C 30.710938 25.160156 30.652344 25.125 30.601562 25.085938 C 30.554688 25.042969 30.515625 24.996094 30.492188 24.9375 C 30.464844 24.882812 30.453125 24.8125 30.453125 24.730469 C 30.453125 24.65625 30.46875 24.585938 30.496094 24.519531 C 30.527344 24.457031 30.566406 24.40625 30.617188 24.359375 C 30.667969 24.316406 30.730469 24.28125 30.804688 24.253906 C 30.878906 24.230469 30.957031 24.21875 31.042969 24.21875 C 31.167969 24.21875 31.285156 24.238281 31.386719 24.277344 C 31.488281 24.3125 31.582031 24.367188 31.671875 24.441406 L 31.507812 24.671875 C 31.429688 24.613281 31.351562 24.570312 31.273438 24.539062 C 31.195312 24.507812 31.117188 24.492188 31.039062 24.492188 C 30.949219 24.492188 30.878906 24.511719 30.828125 24.554688 C 30.78125 24.59375 30.753906 24.644531 30.753906 24.703125 C 30.753906 24.738281 30.761719 24.769531 30.773438 24.792969 Z M 30.773438 24.792969 " fill-opacity="1" fill-rule="nonzero"/><path fill="#6a89aa" d="M 32.832031 26 L 32.523438 26 L 32.523438 24.53125 L 31.972656 24.53125 L 31.972656 24.246094 L 33.382812 24.246094 L 33.382812 24.53125 L 32.832031 24.53125 Z M 32.832031 26 " fill-opacity="1" fill-rule="nonzero"/><path fill="#6a89aa" d="M 33.769531 24.246094 L 34.074219 24.246094 L 34.074219 26 L 33.769531 26 Z M 33.769531 24.246094 " fill-opacity="1" fill-rule="nonzero"/><path fill="#6a89aa" d="M 35.320312 26 L 35.015625 26 L 35.015625 24.53125 L 34.464844 24.53125 L 34.464844 24.246094 L 35.871094 24.246094 L 35.871094 24.53125 L 35.324219 24.53125 L 35.324219 26 Z M 35.320312 26 " fill-opacity="1" fill-rule="nonzero"/><path fill="#6a89aa" d="M 37.699219 25.238281 C 37.699219 25.371094 37.683594 25.484375 37.648438 25.582031 C 37.613281 25.683594 37.5625 25.765625 37.496094 25.832031 C 37.433594 25.894531 37.355469 25.945312 37.261719 25.976562 C 37.171875 26.011719 37.070312 26.027344 36.953125 26.027344 C 36.84375 26.027344 36.742188 26.011719 36.648438 25.976562 C 36.558594 25.945312 36.480469 25.898438 36.417969 25.832031 C 36.351562 25.765625 36.300781 25.6875 36.269531 25.589844 C 36.234375 25.492188 36.214844 25.382812 36.214844 25.253906 L 36.214844 24.246094 L 36.519531 24.246094 L 36.519531 25.242188 C 36.519531 25.40625 36.558594 25.53125 36.636719 25.617188 C 36.714844 25.703125 36.820312 25.742188 36.960938 25.742188 C 37.097656 25.742188 37.203125 25.703125 37.28125 25.621094 C 37.359375 25.539062 37.398438 25.417969 37.398438 25.253906 L 37.398438 24.246094 L 37.703125 24.246094 L 37.703125 25.238281 Z M 37.699219 25.238281 " fill-opacity="1" fill-rule="nonzero"/><path fill="#6a89aa" d="M 38.902344 26 L 38.59375 26 L 38.59375 24.53125 L 38.046875 24.53125 L 38.046875 24.246094 L 39.453125 24.246094 L 39.453125 24.53125 L 38.902344 24.53125 Z M 38.902344 26 " fill-opacity="1" fill-rule="nonzero"/><path fill="#6a89aa" d="M 41.109375 24.523438 L 40.128906 24.523438 L 40.128906 24.972656 L 40.996094 24.972656 L 40.996094 25.253906 L 40.128906 25.253906 L 40.128906 25.722656 L 41.121094 25.722656 L 41.121094 26 L 39.824219 26 L 39.824219 24.246094 L 41.109375 24.246094 Z M 41.109375 24.523438 " fill-opacity="1" fill-rule="nonzero"/><path fill="#6a89aa" d="M 43.996094 25.46875 C 43.953125 25.582031 43.890625 25.675781 43.808594 25.761719 C 43.730469 25.84375 43.632812 25.910156 43.523438 25.957031 C 43.410156 26.003906 43.289062 26.03125 43.15625 26.03125 C 43.023438 26.03125 42.898438 26.003906 42.789062 25.957031 C 42.679688 25.910156 42.582031 25.847656 42.503906 25.765625 C 42.425781 25.683594 42.363281 25.585938 42.316406 25.476562 C 42.273438 25.367188 42.25 25.25 42.25 25.125 C 42.25 25 42.273438 24.882812 42.316406 24.773438 C 42.363281 24.664062 42.425781 24.566406 42.507812 24.484375 C 42.585938 24.402344 42.683594 24.335938 42.792969 24.285156 C 42.90625 24.238281 43.027344 24.214844 43.160156 24.214844 C 43.292969 24.214844 43.417969 24.238281 43.527344 24.285156 C 43.636719 24.332031 43.734375 24.398438 43.8125 24.480469 C 43.890625 24.5625 43.953125 24.65625 43.996094 24.769531 C 44.042969 24.878906 44.066406 24.996094 44.066406 25.121094 C 44.066406 25.242188 44.042969 25.359375 43.996094 25.46875 Z M 43.703125 24.882812 C 43.671875 24.808594 43.632812 24.738281 43.582031 24.683594 C 43.527344 24.625 43.464844 24.582031 43.394531 24.546875 C 43.320312 24.515625 43.242188 24.496094 43.15625 24.496094 C 43.070312 24.496094 42.992188 24.515625 42.917969 24.546875 C 42.847656 24.578125 42.785156 24.625 42.734375 24.679688 C 42.683594 24.734375 42.644531 24.800781 42.613281 24.878906 C 42.585938 24.953125 42.570312 25.035156 42.570312 25.121094 C 42.570312 25.207031 42.585938 25.285156 42.613281 25.363281 C 42.644531 25.4375 42.683594 25.503906 42.734375 25.5625 C 42.789062 25.617188 42.851562 25.664062 42.921875 25.695312 C 42.996094 25.730469 43.074219 25.746094 43.160156 25.746094 C 43.246094 25.746094 43.324219 25.730469 43.398438 25.699219 C 43.46875 25.664062 43.53125 25.621094 43.582031 25.566406 C 43.632812 25.507812 43.671875 25.441406 43.703125 25.367188 C 43.730469 25.289062 43.746094 25.210938 43.746094 25.125 C 43.746094 25.039062 43.730469 24.957031 43.703125 24.882812 Z M 43.703125 24.882812 " fill-opacity="1" fill-rule="nonzero"/><path fill="#6a89aa" d="M 45.773438 24.523438 L 44.785156 24.523438 L 44.785156 25.007812 L 45.660156 25.007812 L 45.660156 25.285156 L 44.785156 25.285156 L 44.785156 26 L 44.484375 26 L 44.484375 24.246094 L 45.773438 24.246094 Z M 45.773438 24.523438 " fill-opacity="1" fill-rule="nonzero"/><path fill="#6a89aa" d="M 47.253906 25.261719 L 47.253906 26 L 46.953125 26 L 46.953125 24.246094 L 47.253906 24.246094 L 47.253906 24.972656 L 48.085938 24.972656 L 48.085938 24.246094 L 48.390625 24.246094 L 48.390625 26 L 48.085938 26 L 48.085938 25.261719 Z M 47.253906 25.261719 " fill-opacity="1" fill-rule="nonzero"/><path fill="#6a89aa" d="M 48.902344 24.246094 L 49.203125 24.246094 L 49.203125 26 L 48.902344 26 Z M 48.902344 24.246094 " fill-opacity="1" fill-rule="nonzero"/><path fill="#6a89aa" d="M 51.125 25.863281 C 51.070312 25.894531 51.015625 25.925781 50.957031 25.949219 C 50.894531 25.976562 50.828125 25.996094 50.761719 26.007812 C 50.691406 26.023438 50.617188 26.03125 50.542969 26.03125 C 50.40625 26.03125 50.285156 26.007812 50.171875 25.960938 C 50.0625 25.914062 49.96875 25.851562 49.890625 25.769531 C 49.8125 25.6875 49.75 25.59375 49.707031 25.484375 C 49.664062 25.371094 49.644531 25.253906 49.644531 25.125 C 49.644531 25 49.664062 24.882812 49.707031 24.773438 C 49.753906 24.664062 49.8125 24.566406 49.894531 24.484375 C 49.972656 24.402344 50.066406 24.335938 50.175781 24.285156 C 50.285156 24.238281 50.40625 24.214844 50.539062 24.214844 C 50.613281 24.214844 50.683594 24.21875 50.746094 24.230469 C 50.804688 24.242188 50.863281 24.257812 50.917969 24.277344 C 50.96875 24.296875 51.019531 24.320312 51.066406 24.351562 C 51.113281 24.378906 51.160156 24.414062 51.203125 24.453125 L 51.011719 24.6875 C 50.976562 24.65625 50.945312 24.632812 50.910156 24.609375 C 50.875 24.585938 50.839844 24.566406 50.800781 24.550781 C 50.761719 24.535156 50.71875 24.519531 50.675781 24.511719 C 50.628906 24.503906 50.578125 24.496094 50.523438 24.496094 C 50.445312 24.496094 50.371094 24.515625 50.304688 24.546875 C 50.234375 24.578125 50.175781 24.625 50.125 24.679688 C 50.074219 24.738281 50.035156 24.804688 50.003906 24.878906 C 49.976562 24.957031 49.960938 25.035156 49.960938 25.121094 C 49.960938 25.210938 49.976562 25.296875 50.003906 25.371094 C 50.03125 25.449219 50.074219 25.515625 50.125 25.574219 C 50.175781 25.628906 50.238281 25.671875 50.308594 25.703125 C 50.382812 25.734375 50.460938 25.75 50.550781 25.75 C 50.632812 25.75 50.710938 25.738281 50.785156 25.714844 C 50.855469 25.691406 50.917969 25.660156 50.972656 25.617188 L 50.972656 25.289062 L 50.527344 25.289062 L 50.527344 25.019531 L 51.265625 25.019531 L 51.265625 25.757812 C 51.222656 25.792969 51.175781 25.828125 51.125 25.863281 Z M 51.125 25.863281 " fill-opacity="1" fill-rule="nonzero"/><path fill="#6a89aa" d="M 52.015625 25.261719 L 52.015625 26 L 51.710938 26 L 51.710938 24.246094 L 52.015625 24.246094 L 52.015625 24.972656 L 52.847656 24.972656 L 52.847656 24.246094 L 53.148438 24.246094 L 53.148438 26 L 52.847656 26 L 52.847656 25.261719 Z M 52.015625 25.261719 " fill-opacity="1" fill-rule="nonzero"/><path fill="#6a89aa" d="M 54.929688 24.523438 L 53.949219 24.523438 L 53.949219 24.972656 L 54.816406 24.972656 L 54.816406 25.253906 L 53.949219 25.253906 L 53.949219 25.722656 L 54.941406 25.722656 L 54.941406 26 L 53.644531 26 L 53.644531 24.246094 L 54.929688 24.246094 Z M 54.929688 24.523438 " fill-opacity="1" fill-rule="nonzero"/><path fill="#6a89aa" d="M 56.46875 26 L 56.039062 25.386719 L 55.65625 25.386719 L 55.65625 26 L 55.355469 26 L 55.355469 24.246094 L 56.128906 24.246094 C 56.226562 24.246094 56.316406 24.257812 56.398438 24.285156 C 56.476562 24.308594 56.546875 24.347656 56.601562 24.394531 C 56.65625 24.441406 56.699219 24.5 56.726562 24.570312 C 56.757812 24.636719 56.773438 24.714844 56.773438 24.800781 C 56.773438 24.875 56.761719 24.941406 56.742188 24.996094 C 56.722656 25.054688 56.691406 25.105469 56.65625 25.152344 C 56.621094 25.195312 56.578125 25.234375 56.527344 25.261719 C 56.476562 25.292969 56.421875 25.316406 56.359375 25.335938 L 56.828125 26 Z M 56.367188 24.597656 C 56.304688 24.546875 56.21875 24.523438 56.101562 24.523438 L 55.65625 24.523438 L 55.65625 25.113281 L 56.105469 25.113281 C 56.214844 25.113281 56.300781 25.089844 56.367188 25.035156 C 56.429688 24.980469 56.464844 24.910156 56.464844 24.816406 C 56.464844 24.71875 56.433594 24.648438 56.367188 24.597656 Z M 56.367188 24.597656 " fill-opacity="1" fill-rule="nonzero"/><path fill="#6a89aa" d="M 59.273438 24.523438 L 58.292969 24.523438 L 58.292969 24.972656 L 59.164062 24.972656 L 59.164062 25.253906 L 58.292969 25.253906 L 58.292969 25.722656 L 59.285156 25.722656 L 59.285156 26 L 57.992188 26 L 57.992188 24.246094 L 59.273438 24.246094 Z M 59.273438 24.523438 " fill-opacity="1" fill-rule="nonzero"/><path fill="#6a89aa" d="M 61.203125 25.46875 C 61.15625 25.574219 61.09375 25.667969 61.011719 25.746094 C 60.929688 25.824219 60.832031 25.886719 60.71875 25.933594 C 60.605469 25.976562 60.480469 26 60.347656 26 L 59.699219 26 L 59.699219 24.246094 L 60.347656 24.246094 C 60.480469 24.246094 60.605469 24.265625 60.71875 24.3125 C 60.832031 24.355469 60.929688 24.417969 61.011719 24.496094 C 61.09375 24.574219 61.15625 24.667969 61.203125 24.773438 C 61.246094 24.878906 61.269531 24.996094 61.269531 25.121094 C 61.269531 25.242188 61.246094 25.359375 61.203125 25.46875 Z M 60.90625 24.882812 C 60.875 24.8125 60.835938 24.746094 60.785156 24.695312 C 60.730469 24.640625 60.667969 24.597656 60.59375 24.566406 C 60.519531 24.539062 60.4375 24.523438 60.34375 24.523438 L 60.003906 24.523438 L 60.003906 25.722656 L 60.34375 25.722656 C 60.4375 25.722656 60.519531 25.707031 60.59375 25.675781 C 60.667969 25.648438 60.730469 25.605469 60.785156 25.554688 C 60.835938 25.5 60.875 25.4375 60.90625 25.363281 C 60.933594 25.292969 60.949219 25.210938 60.949219 25.125 C 60.949219 25.039062 60.933594 24.957031 60.90625 24.882812 Z M 60.90625 24.882812 " fill-opacity="1" fill-rule="nonzero"/><path fill="#6a89aa" d="M 63.144531 25.238281 C 63.144531 25.371094 63.128906 25.484375 63.089844 25.582031 C 63.054688 25.683594 63.007812 25.765625 62.941406 25.832031 C 62.878906 25.894531 62.800781 25.945312 62.707031 25.976562 C 62.617188 26.011719 62.511719 26.027344 62.398438 26.027344 C 62.285156 26.027344 62.183594 26.011719 62.09375 25.976562 C 62.003906 25.945312 61.925781 25.898438 61.859375 25.832031 C 61.796875 25.765625 61.746094 25.6875 61.710938 25.589844 C 61.679688 25.492188 61.660156 25.382812 61.660156 25.253906 L 61.660156 24.246094 L 61.964844 24.246094 L 61.964844 25.242188 C 61.964844 25.40625 62.003906 25.53125 62.082031 25.617188 C 62.160156 25.703125 62.265625 25.742188 62.402344 25.742188 C 62.539062 25.742188 62.648438 25.703125 62.726562 25.621094 C 62.804688 25.539062 62.84375 25.417969 62.84375 25.253906 L 62.84375 24.246094 L 63.144531 24.246094 Z M 63.144531 25.238281 " fill-opacity="1" fill-rule="nonzero"/><path fill="#6a89aa" d="M 64.980469 25.847656 C 64.933594 25.886719 64.878906 25.917969 64.824219 25.945312 C 64.769531 25.972656 64.707031 25.996094 64.640625 26.007812 C 64.574219 26.023438 64.5 26.03125 64.417969 26.03125 C 64.289062 26.03125 64.171875 26.007812 64.066406 25.960938 C 63.957031 25.914062 63.867188 25.847656 63.785156 25.769531 C 63.707031 25.6875 63.648438 25.589844 63.601562 25.480469 C 63.558594 25.371094 63.535156 25.253906 63.535156 25.125 C 63.535156 25 63.558594 24.882812 63.601562 24.769531 C 63.644531 24.660156 63.707031 24.5625 63.785156 24.480469 C 63.867188 24.398438 63.960938 24.332031 64.070312 24.285156 C 64.175781 24.238281 64.296875 24.214844 64.429688 24.214844 C 64.507812 24.214844 64.582031 24.222656 64.648438 24.234375 C 64.710938 24.246094 64.773438 24.265625 64.828125 24.289062 C 64.882812 24.316406 64.929688 24.34375 64.976562 24.375 C 65.023438 24.410156 65.066406 24.445312 65.109375 24.488281 L 64.914062 24.714844 C 64.84375 24.648438 64.769531 24.597656 64.691406 24.558594 C 64.613281 24.515625 64.527344 24.496094 64.425781 24.496094 C 64.34375 24.496094 64.269531 24.515625 64.199219 24.546875 C 64.128906 24.578125 64.066406 24.625 64.015625 24.679688 C 63.964844 24.734375 63.925781 24.800781 63.894531 24.875 C 63.867188 24.953125 63.855469 25.03125 63.855469 25.121094 C 63.855469 25.207031 63.867188 25.289062 63.894531 25.363281 C 63.925781 25.441406 63.964844 25.507812 64.015625 25.5625 C 64.066406 25.621094 64.128906 25.664062 64.199219 25.695312 C 64.269531 25.730469 64.34375 25.746094 64.425781 25.746094 C 64.53125 25.746094 64.625 25.726562 64.699219 25.683594 C 64.777344 25.644531 64.851562 25.589844 64.925781 25.519531 L 65.121094 25.71875 C 65.078125 25.769531 65.03125 25.808594 64.980469 25.847656 Z M 64.980469 25.847656 " fill-opacity="1" fill-rule="nonzero"/><path fill="#6a89aa" d="M 67.152344 26 L 66.828125 26 L 66.652344 25.578125 L 65.832031 25.578125 L 65.65625 26 L 65.34375 26 L 66.105469 24.230469 L 66.386719 24.230469 Z M 66.242188 24.601562 L 65.945312 25.304688 L 66.542969 25.304688 Z M 66.242188 24.601562 " fill-opacity="1" fill-rule="nonzero"/><path fill="#6a89aa" d="M 68.007812 26 L 67.703125 26 L 67.703125 24.53125 L 67.152344 24.53125 L 67.152344 24.246094 L 68.558594 24.246094 L 68.558594 24.53125 L 68.011719 24.53125 L 68.011719 26 Z M 68.007812 26 " fill-opacity="1" fill-rule="nonzero"/><path fill="#6a89aa" d="M 68.949219 24.246094 L 69.25 24.246094 L 69.25 26 L 68.949219 26 Z M 68.949219 24.246094 " fill-opacity="1" fill-rule="nonzero"/><path fill="#6a89aa" d="M 71.4375 25.46875 C 71.390625 25.582031 71.328125 25.675781 71.246094 25.761719 C 71.167969 25.84375 71.070312 25.910156 70.960938 25.957031 C 70.851562 26.003906 70.726562 26.03125 70.59375 26.03125 C 70.460938 26.03125 70.335938 26.003906 70.226562 25.957031 C 70.117188 25.910156 70.023438 25.847656 69.941406 25.765625 C 69.863281 25.683594 69.800781 25.585938 69.757812 25.476562 C 69.710938 25.367188 69.6875 25.25 69.6875 25.125 C 69.6875 25 69.710938 24.882812 69.757812 24.773438 C 69.800781 24.664062 69.863281 24.566406 69.945312 24.484375 C 70.027344 24.402344 70.121094 24.335938 70.230469 24.285156 C 70.34375 24.238281 70.464844 24.214844 70.597656 24.214844 C 70.734375 24.214844 70.855469 24.238281 70.964844 24.285156 C 71.078125 24.332031 71.171875 24.398438 71.25 24.480469 C 71.328125 24.5625 71.390625 24.65625 71.4375 24.769531 C 71.480469 24.878906 71.503906 24.996094 71.503906 25.121094 C 71.503906 25.242188 71.480469 25.359375 71.4375 25.46875 Z M 71.140625 24.882812 C 71.113281 24.808594 71.070312 24.738281 71.019531 24.683594 C 70.96875 24.625 70.90625 24.582031 70.832031 24.546875 C 70.757812 24.515625 70.679688 24.496094 70.59375 24.496094 C 70.507812 24.496094 70.429688 24.515625 70.355469 24.546875 C 70.285156 24.578125 70.222656 24.625 70.171875 24.679688 C 70.121094 24.734375 70.082031 24.800781 70.050781 24.878906 C 70.023438 24.953125 70.007812 25.035156 70.007812 25.121094 C 70.007812 25.207031 70.023438 25.285156 70.050781 25.363281 C 70.082031 25.4375 70.121094 25.503906 70.171875 25.5625 C 70.226562 25.617188 70.289062 25.664062 70.359375 25.695312 C 70.433594 25.730469 70.511719 25.746094 70.597656 25.746094 C 70.683594 25.746094 70.761719 25.730469 70.835938 25.699219 C 70.90625 25.664062 70.96875 25.621094 71.019531 25.566406 C 71.070312 25.507812 71.113281 25.441406 71.140625 25.367188 C 71.167969 25.289062 71.183594 25.210938 71.183594 25.125 C 71.183594 25.039062 71.167969 24.957031 71.140625 24.882812 Z M 71.140625 24.882812 " fill-opacity="1" fill-rule="nonzero"/><path fill="#6a89aa" d="M 73.132812 24.246094 L 73.433594 24.246094 L 73.433594 26 L 73.179688 26 L 72.226562 24.75 L 72.226562 26 L 71.921875 26 L 71.921875 24.246094 L 72.203125 24.246094 L 73.132812 25.457031 Z M 73.132812 24.246094 " fill-opacity="1" fill-rule="nonzero"/><path fill="#6a89aa" d="M 8.519531 23.324219 C 8.886719 23.425781 9.265625 23.507812 9.65625 23.570312 L 8.082031 26.683594 L 6.820312 26.683594 Z M 8.519531 23.324219 " fill-opacity="1" fill-rule="nonzero"/><path fill="#6a89aa" d="M 9.414062 21.554688 C 9.800781 21.628906 10.195312 21.679688 10.597656 21.707031 L 10.011719 22.859375 C 9.628906 22.8125 9.246094 22.738281 8.863281 22.636719 Z M 9.414062 21.554688 " fill-opacity="1" fill-rule="nonzero"/><path fill="#6a89aa" d="M 19.011719 19.1875 C 18.890625 19.246094 18.769531 19.300781 18.648438 19.351562 L 15.214844 12.558594 L 10.96875 20.972656 C 10.546875 20.957031 10.144531 20.914062 9.765625 20.851562 L 14.707031 11.070312 L 15.726562 11.070312 L 19.664062 18.867188 C 19.449219 18.976562 19.230469 19.085938 19.011719 19.1875 Z M 19.011719 19.1875 " fill-opacity="1" fill-rule="nonzero"/><path fill="#6a89aa" d="M 20.511719 20.546875 C 20.285156 20.675781 20.050781 20.796875 19.820312 20.917969 C 19.71875 20.96875 19.617188 21.019531 19.515625 21.070312 L 18.988281 20.023438 C 19.101562 19.976562 19.210938 19.925781 19.324219 19.871094 C 19.550781 19.765625 19.777344 19.652344 20.003906 19.539062 Z M 20.511719 20.546875 " fill-opacity="1" fill-rule="nonzero"/><path fill="#6a89aa" d="M 23.609375 26.683594 L 22.351562 26.683594 L 19.855469 21.742188 C 19.957031 21.691406 20.054688 21.640625 20.15625 21.589844 C 20.402344 21.464844 20.632812 21.339844 20.851562 21.21875 Z M 23.609375 26.683594 " fill-opacity="1" fill-rule="nonzero"/><path fill="#1f2e4c" d="M 25.136719 14.988281 C 25.132812 15.410156 25.042969 15.828125 24.890625 16.210938 C 24.585938 16.976562 24.109375 17.628906 23.574219 18.207031 C 23.035156 18.78125 22.433594 19.28125 21.804688 19.730469 C 21.386719 20.03125 20.957031 20.296875 20.511719 20.546875 C 20.285156 20.675781 20.050781 20.796875 19.820312 20.917969 C 19.71875 20.96875 19.617188 21.019531 19.515625 21.070312 C 18.929688 21.359375 18.324219 21.613281 17.707031 21.832031 C 16.265625 22.34375 14.769531 22.71875 13.238281 22.871094 C 12.683594 22.925781 12.125 22.960938 11.5625 22.960938 C 11.046875 22.960938 10.53125 22.933594 10.011719 22.859375 C 9.628906 22.8125 9.246094 22.738281 8.863281 22.636719 C 8.773438 22.613281 8.679688 22.585938 8.589844 22.558594 C 7.824219 22.324219 7.046875 21.972656 6.417969 21.339844 C 6.109375 21.019531 5.855469 20.613281 5.71875 20.171875 C 5.574219 19.730469 5.566406 19.253906 5.636719 18.820312 C 5.800781 17.941406 6.253906 17.222656 6.765625 16.625 C 7.285156 16.023438 7.875 15.507812 8.503906 15.070312 C 9.742188 14.199219 11.109375 13.558594 12.515625 13.09375 L 12.351562 13.417969 C 11.125 14.035156 9.949219 14.75 8.914062 15.617188 C 8.359375 16.085938 7.839844 16.59375 7.421875 17.160156 C 7.003906 17.722656 6.683594 18.351562 6.601562 18.96875 C 6.566406 19.273438 6.589844 19.570312 6.695312 19.839844 C 6.792969 20.109375 6.960938 20.351562 7.179688 20.5625 C 7.621094 20.984375 8.246094 21.265625 8.90625 21.441406 C 9.070312 21.484375 9.242188 21.523438 9.414062 21.554688 C 9.800781 21.632812 10.195312 21.679688 10.597656 21.707031 C 10.875 21.730469 11.152344 21.738281 11.433594 21.738281 C 11.992188 21.738281 12.550781 21.703125 13.105469 21.640625 C 14.53125 21.46875 15.949219 21.152344 17.3125 20.679688 C 17.878906 20.480469 18.4375 20.269531 18.988281 20.027344 C 19.101562 19.976562 19.210938 19.925781 19.324219 19.875 C 19.550781 19.769531 19.777344 19.65625 20 19.539062 C 20.417969 19.324219 20.824219 19.09375 21.21875 18.84375 C 21.828125 18.460938 22.40625 18.03125 22.921875 17.546875 C 23.4375 17.0625 23.90625 16.523438 24.207031 15.910156 C 24.507812 15.304688 24.628906 14.613281 24.375 13.988281 C 24.253906 13.675781 24.050781 13.390625 23.796875 13.148438 C 23.566406 12.921875 23.292969 12.726562 23.007812 12.5625 L 23.007812 12.324219 C 23.363281 12.457031 23.714844 12.625 24.035156 12.855469 C 24.355469 13.089844 24.640625 13.394531 24.839844 13.761719 C 25.042969 14.132812 25.140625 14.5625 25.136719 14.988281 Z M 25.136719 14.988281 " fill-opacity="1" fill-rule="nonzero"/><path fill="#4a718e" d="M 20.003906 19.539062 C 19.777344 19.65625 19.550781 19.765625 19.324219 19.871094 C 19.210938 19.925781 19.101562 19.976562 18.988281 20.023438 L 18.816406 19.6875 L 18.648438 19.351562 C 18.769531 19.300781 18.890625 19.246094 19.011719 19.1875 C 19.230469 19.085938 19.449219 18.976562 19.664062 18.867188 L 19.832031 19.203125 Z M 20.003906 19.539062 " fill-opacity="1" fill-rule="nonzero"/><path fill="#4a718e" d="M 10.96875 20.972656 L 10.78125 21.339844 L 10.597656 21.707031 C 10.195312 21.679688 9.800781 21.628906 9.414062 21.554688 L 9.589844 21.203125 L 9.769531 20.851562 C 10.144531 20.914062 10.546875 20.957031 10.96875 20.972656 Z M 10.96875 20.972656 " fill-opacity="1" fill-rule="nonzero"/><path fill="#1f2e4c" d="M 20.253906 12.5625 L 21.8125 12.125 L 20.253906 11.6875 L 19.820312 10.109375 L 19.386719 11.6875 L 17.828125 12.125 L 19.386719 12.5625 L 19.820312 14.144531 Z M 20.253906 12.5625 " fill-opacity="1" fill-rule="nonzero"/></svg>