<svg xmlns="http://www.w3.org/2000/svg" xmlns:xlink="http://www.w3.org/1999/xlink" width="106" zoomAndPan="magnify" viewBox="0 0 79.5 37.5" height="50" preserveAspectRatio="xMidYMid meet" version="1.0"><defs><clipPath id="f721c38ea7"><path d="M 4 9.136719 L 75 9.136719 L 75 27.640625 L 4 27.640625 Z M 4 9.136719 " clip-rule="nonzero"/></clipPath><clipPath id="141cdcf5f0"><path d="M 8 12 L 24 12 L 24 27.640625 L 8 27.640625 Z M 8 12 " clip-rule="nonzero"/></clipPath><clipPath id="77fd008ef4"><path d="M 25 13 L 75 13 L 75 27.640625 L 25 27.640625 Z M 25 13 " clip-rule="nonzero"/></clipPath></defs><g clip-path="url(#f721c38ea7)"><path fill="#ec3c34" d="M 11.476562 9.167969 C 9.511719 9.542969 9.128906 12.179688 10.917969 13.023438 C 12.71875 13.871094 14.542969 12 13.640625 10.230469 C 13.265625 9.496094 12.28125 9.011719 11.476562 9.167969 M 16.339844 10.796875 C 14.402344 11.199219 13.71875 13.394531 15.105469 14.753906 C 16.574219 16.191406 19.074219 15.128906 19.070312 13.070312 C 19.066406 11.664062 17.683594 10.515625 16.339844 10.796875 M 7.375 11.652344 C 5.957031 12.105469 5.546875 13.859375 6.628906 14.835938 C 7.953125 16.027344 10.027344 14.933594 9.777344 13.175781 C 9.621094 12.070312 8.429688 11.316406 7.375 11.652344 M 30.234375 13.683594 L 30.234375 14.058594 L 31.105469 14.058594 L 31.105469 13.308594 L 30.234375 13.308594 L 30.234375 13.683594 M 42.875 13.683594 L 42.875 14.058594 L 43.75 14.058594 L 43.75 13.308594 L 42.875 13.308594 L 42.875 13.683594 M 63 13.683594 L 63 14.058594 L 63.832031 14.058594 L 63.832031 13.308594 L 63 13.308594 L 63 13.683594 M 25.941406 13.550781 C 25.941406 13.570312 26.046875 13.871094 26.652344 15.558594 C 26.769531 15.878906 26.972656 16.453125 27.105469 16.835938 C 27.402344 17.675781 27.308594 17.589844 27.917969 17.578125 L 28.425781 17.566406 L 28.769531 16.628906 C 29.34375 15.070312 29.890625 13.574219 29.890625 13.550781 C 29.890625 13.542969 29.6875 13.535156 29.4375 13.535156 L 28.984375 13.535156 L 28.492188 15.007812 C 28.21875 15.816406 27.988281 16.542969 27.972656 16.621094 C 27.945312 16.753906 27.878906 16.816406 27.878906 16.707031 C 27.878906 16.621094 27.566406 15.589844 27.222656 14.527344 L 26.902344 13.550781 L 26.421875 13.542969 C 26.160156 13.535156 25.941406 13.539062 25.941406 13.550781 M 52.8125 13.558594 C 52.796875 13.570312 52.785156 14.484375 52.785156 15.585938 L 52.785156 17.589844 L 53.675781 17.566406 L 53.675781 13.550781 L 53.257812 13.542969 C 53.027344 13.535156 52.824219 13.542969 52.8125 13.558594 M 35.269531 13.746094 C 35.257812 13.757812 35.242188 13.945312 35.242188 14.160156 L 35.242188 14.546875 L 34.789062 14.546875 L 34.789062 15.183594 L 35.242188 15.183594 L 35.242188 16.089844 C 35.242188 17.46875 35.382812 17.675781 36.253906 17.613281 C 36.617188 17.585938 36.609375 17.589844 36.609375 17.265625 L 36.609375 16.984375 L 36.5 16.984375 C 36.367188 16.984375 36.1875 16.921875 36.148438 16.859375 C 36.132812 16.835938 36.117188 16.449219 36.117188 16 L 36.117188 15.1875 L 36.410156 15.175781 L 36.707031 15.164062 L 36.707031 14.566406 L 36.121094 14.542969 L 36.097656 13.738281 L 35.699219 13.730469 C 35.476562 13.722656 35.285156 13.730469 35.269531 13.746094 M 61.089844 13.746094 C 61.074219 13.757812 61.0625 13.945312 61.0625 14.160156 L 61.0625 14.546875 L 60.605469 14.546875 L 60.605469 15.183594 L 61.058594 15.183594 L 61.070312 16.152344 C 61.085938 17.480469 61.160156 17.605469 61.933594 17.605469 C 62.433594 17.605469 62.429688 17.609375 62.429688 17.269531 L 62.429688 16.984375 L 62.316406 16.984375 C 62.183594 16.984375 62.003906 16.921875 61.964844 16.859375 C 61.949219 16.835938 61.9375 16.449219 61.9375 16 L 61.933594 15.183594 L 62.5 15.183594 L 62.511719 14.878906 C 62.527344 14.515625 62.550781 14.546875 62.214844 14.546875 L 61.9375 14.546875 L 61.925781 14.144531 L 61.914062 13.738281 L 61.515625 13.730469 C 61.296875 13.722656 61.101562 13.730469 61.089844 13.746094 M 64.769531 13.746094 C 64.753906 13.757812 64.746094 13.945312 64.746094 14.160156 L 64.746094 14.546875 L 64.289062 14.546875 L 64.289062 15.183594 L 64.738281 15.183594 L 64.753906 16.132812 C 64.773438 17.488281 64.898438 17.667969 65.761719 17.609375 C 66.160156 17.582031 66.148438 17.59375 66.148438 17.269531 L 66.148438 16.996094 L 65.953125 16.976562 C 65.621094 16.945312 65.617188 16.929688 65.617188 15.988281 L 65.617188 15.183594 L 66.226562 15.183594 L 66.226562 14.546875 L 65.617188 14.546875 L 65.617188 13.722656 L 65.207031 13.722656 C 64.980469 13.722656 64.785156 13.730469 64.769531 13.746094 M 70.351562 13.746094 C 70.335938 13.757812 70.324219 13.945312 70.324219 14.160156 L 70.324219 14.546875 L 69.871094 14.546875 L 69.871094 15.183594 L 70.320312 15.183594 L 70.332031 16.132812 C 70.351562 17.484375 70.425781 17.605469 71.25 17.601562 C 71.730469 17.601562 71.730469 17.601562 71.730469 17.238281 L 71.730469 16.984375 L 71.574219 16.984375 C 71.421875 16.984375 71.277344 16.933594 71.226562 16.859375 C 71.210938 16.835938 71.199219 16.449219 71.199219 16 L 71.199219 15.183594 L 71.808594 15.183594 L 71.796875 14.875 L 71.789062 14.566406 L 71.203125 14.542969 L 71.179688 13.738281 L 70.78125 13.730469 C 70.558594 13.722656 70.367188 13.730469 70.351562 13.746094 M 32.746094 14.53125 C 31.441406 14.875 31.28125 17.019531 32.519531 17.527344 C 33.230469 17.820312 34.105469 17.542969 34.394531 16.929688 C 34.558594 16.585938 34.546875 16.574219 34.089844 16.574219 L 33.691406 16.574219 L 33.585938 16.730469 C 33.078125 17.472656 32.273438 16.480469 32.632812 15.554688 C 32.820312 15.082031 33.398438 14.996094 33.609375 15.40625 L 33.6875 15.558594 L 34.085938 15.558594 C 34.539062 15.558594 34.539062 15.558594 34.464844 15.308594 C 34.277344 14.675781 33.507812 14.328125 32.746094 14.53125 M 38.140625 14.507812 C 36.570312 14.839844 36.589844 17.332031 38.167969 17.617188 C 39.222656 17.804688 39.992188 17.152344 40.003906 16.066406 C 40.015625 14.976562 39.191406 14.285156 38.140625 14.507812 M 42.070312 14.523438 C 41.84375 14.585938 41.625 14.734375 41.527344 14.894531 L 41.453125 15.015625 L 41.433594 14.789062 L 41.414062 14.566406 L 41.011719 14.554688 C 40.707031 14.546875 40.601562 14.554688 40.59375 14.59375 C 40.585938 14.617188 40.582031 15.304688 40.589844 16.113281 L 40.601562 17.585938 L 41.425781 17.585938 L 41.4375 16.714844 C 41.457031 15.542969 41.550781 15.359375 42.171875 15.300781 L 42.402344 15.277344 L 42.402344 14.882812 C 42.402344 14.433594 42.402344 14.433594 42.070312 14.523438 M 45.191406 14.53125 C 44.75 14.648438 44.433594 14.996094 44.433594 15.359375 C 44.433594 15.5 45.214844 15.496094 45.25 15.355469 C 45.347656 14.980469 46.039062 14.996094 46.140625 15.375 C 46.214844 15.648438 46.214844 15.652344 45.703125 15.675781 C 44.515625 15.738281 43.976562 16.332031 44.378906 17.132812 C 44.648438 17.667969 45.628906 17.828125 46.070312 17.410156 L 46.167969 17.316406 L 46.195312 17.453125 L 46.21875 17.589844 L 47.023438 17.566406 L 47.015625 16.460938 C 47.007812 15.265625 46.996094 15.144531 46.847656 14.917969 C 46.589844 14.535156 45.839844 14.359375 45.191406 14.53125 M 49.195312 14.503906 C 49 14.554688 48.765625 14.695312 48.695312 14.800781 L 48.628906 14.902344 L 48.589844 14.566406 L 47.753906 14.566406 L 47.742188 15.503906 C 47.734375 16.019531 47.742188 16.699219 47.753906 17.011719 L 47.78125 17.585938 L 48.601562 17.585938 L 48.613281 16.582031 C 48.628906 15.324219 48.699219 15.15625 49.179688 15.171875 C 49.613281 15.1875 49.636719 15.253906 49.636719 16.480469 C 49.636719 17.707031 49.585938 17.585938 50.09375 17.585938 L 50.511719 17.585938 L 50.5 16.394531 C 50.488281 15.078125 50.476562 15.011719 50.210938 14.753906 C 49.988281 14.535156 49.523438 14.417969 49.195312 14.503906 M 55.867188 14.507812 C 55.710938 14.542969 55.367188 14.753906 55.367188 14.816406 C 55.367188 14.832031 55.351562 14.847656 55.328125 14.847656 C 55.308594 14.847656 55.289062 14.777344 55.289062 14.695312 L 55.289062 14.546875 L 54.457031 14.546875 L 54.457031 17.589844 L 55.308594 17.566406 L 55.328125 16.527344 C 55.351562 15.265625 55.382812 15.1875 55.867188 15.183594 C 56.296875 15.183594 56.355469 15.367188 56.351562 16.683594 L 56.347656 17.566406 L 56.769531 17.578125 L 57.1875 17.589844 L 57.1875 16.46875 C 57.1875 15.199219 57.167969 15.0625 56.933594 14.804688 C 56.683594 14.53125 56.285156 14.421875 55.867188 14.507812 M 58.59375 14.519531 C 58.113281 14.628906 57.832031 14.90625 57.804688 15.296875 C 57.761719 15.875 57.988281 16.109375 58.792969 16.332031 C 59.402344 16.5 59.503906 16.5625 59.503906 16.773438 C 59.503906 17.125 58.734375 17.105469 58.5625 16.75 C 58.515625 16.648438 58.511719 16.648438 58.09375 16.648438 L 57.675781 16.648438 L 57.699219 16.785156 C 57.9375 18.027344 60.375 17.917969 60.375 16.667969 C 60.375 16.191406 60.113281 15.910156 59.503906 15.738281 C 59.390625 15.703125 59.171875 15.644531 59.023438 15.597656 C 58.722656 15.511719 58.632812 15.449219 58.632812 15.320312 C 58.632812 15.015625 59.265625 15 59.445312 15.300781 L 59.507812 15.410156 L 60.3125 15.410156 L 60.289062 15.292969 C 60.164062 14.679688 59.40625 14.335938 58.59375 14.519531 M 73.179688 14.511719 C 71.824219 14.773438 71.644531 17.070312 72.941406 17.550781 C 73.671875 17.820312 74.503906 17.539062 74.828125 16.90625 C 74.953125 16.660156 74.941406 16.648438 74.492188 16.648438 L 74.109375 16.648438 L 73.972656 16.792969 C 73.621094 17.171875 73.015625 16.9375 72.953125 16.402344 L 72.933594 16.234375 L 74.957031 16.234375 L 74.957031 15.960938 C 74.953125 14.910156 74.21875 14.308594 73.179688 14.511719 M 30.25 14.59375 C 30.238281 14.617188 30.234375 15.296875 30.242188 16.105469 L 30.25 17.566406 L 30.679688 17.578125 L 31.105469 17.589844 L 31.105469 14.546875 L 30.6875 14.546875 C 30.386719 14.546875 30.261719 14.558594 30.25 14.59375 M 42.875 16.066406 L 42.875 17.589844 L 43.300781 17.578125 L 43.730469 17.566406 L 43.730469 14.566406 L 43.300781 14.554688 L 42.875 14.542969 L 42.875 16.066406 M 63 16.066406 L 63 17.585938 L 63.832031 17.585938 L 63.832031 14.546875 L 63 14.546875 L 63 16.066406 M 66.648438 15.71875 C 66.664062 17.003906 66.671875 17.054688 66.921875 17.347656 C 67.230469 17.707031 68.019531 17.742188 68.375 17.410156 L 68.496094 17.300781 L 68.542969 17.589844 L 69.355469 17.566406 L 69.367188 16.054688 L 69.378906 14.546875 L 68.507812 14.546875 L 68.496094 15.570312 C 68.480469 16.828125 68.410156 17 67.925781 16.9375 C 67.554688 16.886719 67.515625 16.761719 67.515625 15.542969 L 67.515625 14.546875 L 66.636719 14.546875 L 66.648438 15.71875 M 73.875 15.191406 C 73.992188 15.28125 74.085938 15.46875 74.085938 15.613281 L 74.085938 15.710938 L 72.953125 15.710938 L 72.980469 15.585938 C 73.082031 15.15625 73.558594 14.945312 73.875 15.191406 M 38.839844 15.25 C 39.195312 15.503906 39.230469 16.46875 38.894531 16.800781 C 38.316406 17.371094 37.640625 16.542969 37.917969 15.613281 C 38.042969 15.195312 38.507812 15.015625 38.839844 15.25 M 5.230469 15.625 C 3.367188 16.261719 3.820312 18.96875 5.789062 18.972656 C 7.753906 18.976562 8.183594 16.265625 6.320312 15.628906 C 6.046875 15.535156 5.5 15.535156 5.230469 15.625 M 46.148438 16.433594 C 46.125 16.953125 45.59375 17.238281 45.265625 16.914062 C 44.917969 16.570312 45.246094 16.191406 45.875 16.207031 L 46.160156 16.214844 L 46.148438 16.433594 M 30.363281 19.15625 C 30.046875 19.300781 29.851562 19.664062 29.851562 20.125 L 29.851562 20.359375 L 29.632812 20.371094 L 29.417969 20.378906 L 29.417969 20.980469 L 29.632812 20.992188 L 29.851562 21.003906 L 29.851562 23.402344 L 30.28125 23.394531 L 30.707031 23.382812 L 30.71875 22.191406 L 30.726562 21 L 31.261719 21 L 31.25 20.691406 L 31.238281 20.378906 L 30.980469 20.371094 L 30.726562 20.359375 L 30.726562 20.152344 C 30.726562 19.886719 30.835938 19.761719 31.0625 19.761719 L 31.210938 19.761719 L 31.234375 19.5 C 31.277344 19.085938 31.277344 19.085938 30.867188 19.085938 C 30.609375 19.089844 30.476562 19.105469 30.363281 19.15625 M 38.574219 19.148438 C 38.558594 19.164062 38.546875 19.472656 38.546875 19.835938 L 38.546875 20.5 L 38.347656 20.402344 C 37.128906 19.808594 35.949219 21.382812 36.59375 22.746094 C 36.929688 23.449219 37.929688 23.707031 38.441406 23.226562 C 38.546875 23.125 38.566406 23.132812 38.59375 23.308594 C 38.605469 23.375 38.640625 23.382812 39.011719 23.394531 L 39.421875 23.402344 L 39.421875 19.125 L 39.007812 19.125 C 38.78125 19.125 38.585938 19.136719 38.574219 19.148438 M 52.140625 19.496094 L 52.140625 19.875 L 53.015625 19.875 L 53.003906 19.507812 L 52.992188 19.144531 L 52.140625 19.121094 L 52.140625 19.496094 M 33.058594 19.394531 C 33.050781 19.421875 33.046875 20.328125 33.050781 21.414062 L 33.0625 23.382812 L 34.5 23.390625 C 35.585938 23.398438 35.949219 23.390625 35.96875 23.359375 C 35.984375 23.332031 36.007812 23.210938 36.023438 23.085938 C 36.035156 22.960938 36.054688 22.8125 36.066406 22.753906 L 36.085938 22.652344 L 35.007812 22.640625 L 33.933594 22.632812 L 33.921875 22.15625 L 33.914062 21.675781 L 34.890625 21.667969 L 35.871094 21.65625 L 35.871094 20.945312 L 34.890625 20.933594 L 33.914062 20.921875 L 33.921875 20.519531 L 33.933594 20.117188 L 34.941406 20.097656 L 35.945312 20.082031 L 35.945312 19.367188 L 34.511719 19.359375 C 33.386719 19.351562 33.074219 19.359375 33.058594 19.394531 M 50.230469 19.558594 C 50.214844 19.574219 50.203125 19.761719 50.203125 19.972656 L 50.203125 20.359375 L 49.984375 20.371094 L 49.765625 20.378906 L 49.753906 20.691406 L 49.746094 21 L 50.195312 21 L 50.207031 21.949219 C 50.226562 23.296875 50.300781 23.421875 51.09375 23.421875 C 51.617188 23.421875 51.609375 23.425781 51.609375 23.089844 L 51.609375 22.808594 L 51.398438 22.792969 C 51.085938 22.769531 51.097656 22.796875 51.082031 21.84375 L 51.074219 21 L 51.6875 21 L 51.675781 20.691406 L 51.664062 20.378906 L 51.371094 20.371094 L 51.078125 20.359375 L 51.066406 19.957031 L 51.058594 19.554688 L 50.65625 19.546875 C 50.4375 19.539062 50.242188 19.546875 50.230469 19.558594 M 5.308594 19.964844 C 3.832031 20.425781 3.890625 22.511719 5.390625 22.859375 C 6.828125 23.195312 7.84375 21.484375 6.855469 20.398438 C 6.480469 19.984375 5.828125 19.800781 5.308594 19.964844 M 27.285156 20.34375 C 26.269531 20.5625 25.800781 21.777344 26.351562 22.777344 C 26.824219 23.632812 28.300781 23.703125 28.867188 22.894531 C 29.304688 22.265625 29.253906 21.230469 28.757812 20.726562 C 28.398438 20.355469 27.867188 20.21875 27.285156 20.34375 M 44.546875 20.34375 C 43.535156 20.625 43.105469 22.042969 43.757812 22.9375 C 44.398438 23.824219 46.113281 23.523438 46.261719 22.5 L 46.273438 22.40625 L 45.867188 22.394531 L 45.460938 22.386719 L 45.40625 22.492188 C 45.023438 23.214844 44.214844 22.625 44.339844 21.71875 C 44.4375 20.980469 45.074219 20.675781 45.375 21.214844 L 45.464844 21.375 L 46.300781 21.375 L 46.273438 21.238281 C 46.144531 20.554688 45.320312 20.132812 44.546875 20.34375 M 47.699219 20.324219 C 47.191406 20.410156 46.785156 20.78125 46.785156 21.15625 L 46.785156 21.261719 L 47.582031 21.261719 L 47.636719 21.132812 C 47.800781 20.742188 48.496094 20.882812 48.496094 21.308594 L 48.496094 21.476562 L 48.039062 21.5 C 46.933594 21.554688 46.371094 22.132812 46.691406 22.890625 C 46.941406 23.480469 47.964844 23.675781 48.441406 23.21875 L 48.523438 23.144531 L 48.550781 23.273438 L 48.574219 23.402344 L 48.976562 23.394531 L 49.375 23.382812 L 49.371094 22.316406 C 49.363281 21.15625 49.34375 20.980469 49.179688 20.726562 C 48.964844 20.394531 48.324219 20.21875 47.699219 20.324219 M 54.699219 20.335938 C 53.105469 20.742188 53.179688 23.179688 54.792969 23.445312 C 55.820312 23.609375 56.59375 22.9375 56.589844 21.882812 C 56.589844 20.785156 55.722656 20.078125 54.699219 20.335938 M 58.613281 20.324219 C 58.429688 20.367188 58.191406 20.503906 58.105469 20.609375 L 58.023438 20.710938 L 58.023438 20.621094 C 58.023438 20.367188 58.015625 20.363281 57.5625 20.363281 L 57.148438 20.363281 L 57.160156 21.871094 L 57.171875 23.382812 L 58.003906 23.382812 L 58.023438 22.371094 C 58.046875 21.097656 58.085938 21 58.554688 21 C 59.007812 21 59.027344 21.050781 59.050781 22.332031 L 59.070312 23.382812 L 59.902344 23.382812 L 59.902344 22.21875 C 59.902344 21.078125 59.902344 21.054688 59.8125 20.859375 C 59.613281 20.421875 59.117188 20.199219 58.613281 20.324219 M 40.140625 21.496094 C 40.140625 22.707031 40.152344 22.796875 40.332031 23.078125 C 40.617188 23.519531 41.496094 23.609375 41.859375 23.226562 L 41.984375 23.097656 L 42.003906 23.238281 L 42.019531 23.382812 L 42.855469 23.382812 L 42.867188 21.996094 C 42.875 21.230469 42.867188 20.550781 42.855469 20.484375 L 42.835938 20.363281 L 42.007812 20.363281 L 41.996094 21.367188 C 41.976562 22.644531 41.929688 22.761719 41.433594 22.761719 C 41.042969 22.761719 40.980469 22.546875 40.976562 21.214844 L 40.976562 20.363281 L 40.140625 20.363281 L 40.140625 21.496094 M 52.140625 21.882812 L 52.140625 23.402344 L 52.566406 23.394531 L 52.992188 23.382812 L 52.992188 20.378906 L 52.566406 20.371094 L 52.140625 20.359375 L 52.140625 21.882812 M 27.992188 21.070312 C 28.390625 21.359375 28.390625 22.414062 27.988281 22.699219 C 27.699219 22.90625 27.304688 22.78125 27.128906 22.433594 C 26.726562 21.617188 27.359375 20.613281 27.992188 21.070312 M 38.320312 21.074219 C 38.707031 21.34375 38.667969 22.492188 38.265625 22.710938 C 37.65625 23.03125 37.125 22.277344 37.375 21.449219 C 37.5 21.039062 37.988281 20.84375 38.320312 21.074219 M 55.25 21 C 55.894531 21.179688 55.863281 22.640625 55.214844 22.78125 C 54.753906 22.882812 54.4375 22.5 54.441406 21.839844 C 54.441406 21.207031 54.773438 20.863281 55.25 21 M 48.496094 22.21875 C 48.496094 22.632812 48.308594 22.839844 47.9375 22.839844 C 47.40625 22.839844 47.316406 22.15625 47.835938 22.070312 C 47.914062 22.054688 48 22.039062 48.019531 22.03125 C 48.039062 22.023438 48.15625 22.019531 48.277344 22.015625 L 48.496094 22.011719 L 48.496094 22.21875 M 7.152344 23.3125 C 6.117188 23.671875 5.882812 25.023438 6.738281 25.691406 C 7.621094 26.382812 8.933594 25.8125 9 24.703125 C 9.058594 23.726562 8.082031 22.992188 7.152344 23.3125 M 10.167969 25.214844 C 9.269531 25.507812 8.96875 26.542969 9.585938 27.210938 C 10.402344 28.09375 11.820312 27.488281 11.734375 26.292969 C 11.679688 25.535156 10.875 24.984375 10.167969 25.214844 " fill-opacity="1" fill-rule="evenodd"/></g><g clip-path="url(#141cdcf5f0)"><path fill="#0c5494" d="M 22.695312 12.949219 C 22.328125 13.0625 22.207031 13.167969 21.847656 13.691406 C 21.699219 13.902344 21.257812 14.46875 20.859375 14.945312 C 18.601562 17.667969 17.449219 19.738281 16.429688 22.886719 C 16.3125 23.257812 16.210938 23.550781 16.203125 23.542969 C 16.195312 23.535156 16.085938 23.242188 15.960938 22.894531 C 15.4375 21.410156 14.628906 19.636719 14.191406 18.992188 C 13.78125 18.394531 12.273438 16.703125 11.957031 16.484375 L 11.800781 16.375 L 11.058594 16.398438 C 9.460938 16.449219 8.363281 16.570312 8.3125 16.703125 C 8.203125 16.988281 8.492188 17.25 9.117188 17.433594 C 9.269531 17.476562 9.535156 17.574219 9.703125 17.648438 C 9.875 17.71875 10.15625 17.839844 10.332031 17.910156 C 10.949219 18.171875 11.34375 18.65625 12.421875 20.476562 C 13.257812 21.882812 13.585938 22.582031 13.804688 23.402344 C 13.859375 23.597656 14.023438 24.15625 14.171875 24.640625 C 14.320312 25.125 14.476562 25.722656 14.519531 25.972656 C 14.648438 26.695312 14.851562 26.996094 15.375 27.238281 C 16.085938 27.566406 17.234375 27.257812 17.421875 26.6875 C 17.488281 26.496094 17.582031 26.28125 18.3125 24.660156 C 20.066406 20.769531 21.902344 17.097656 22.753906 15.785156 C 22.894531 15.566406 23.089844 15.253906 23.191406 15.089844 C 23.386719 14.765625 23.472656 14.65625 23.71875 14.394531 C 24.378906 13.707031 23.636719 12.652344 22.695312 12.949219 " fill-opacity="1" fill-rule="evenodd"/></g><g clip-path="url(#77fd008ef4)"><path fill="#0c0c14" d="M 62.972656 13.683594 C 62.972656 13.878906 62.980469 13.960938 62.988281 13.863281 C 62.996094 13.761719 62.996094 13.601562 62.988281 13.503906 C 62.980469 13.40625 62.972656 13.488281 62.972656 13.683594 M 44.621094 26.757812 L 44.621094 27.640625 L 44.925781 27.640625 L 44.925781 25.878906 L 44.621094 25.878906 L 44.621094 26.757812 M 57.726562 25.960938 C 57.59375 26.09375 57.757812 26.300781 57.933594 26.21875 C 58.09375 26.148438 58.03125 25.914062 57.851562 25.914062 C 57.808594 25.914062 57.753906 25.9375 57.726562 25.960938 M 34.710938 26.703125 L 34.710938 27.417969 L 34.84375 27.417969 C 34.9375 27.417969 34.976562 27.398438 34.976562 27.359375 C 34.976562 27.308594 34.992188 27.308594 35.097656 27.363281 C 35.347656 27.492188 35.652344 27.382812 35.761719 27.125 C 35.964844 26.648438 35.542969 26.164062 35.117188 26.382812 C 35.054688 26.414062 35 26.441406 34.992188 26.441406 C 34.984375 26.441406 34.976562 26.339844 34.976562 26.214844 L 34.976562 25.992188 L 34.710938 25.992188 L 34.710938 26.703125 M 41.042969 26.050781 C 40.929688 26.109375 40.824219 26.28125 40.824219 26.402344 C 40.824219 26.535156 41.0625 26.507812 41.117188 26.367188 C 41.203125 26.136719 41.503906 26.246094 41.457031 26.488281 C 41.433594 26.609375 41.109375 26.976562 40.914062 27.105469 C 40.855469 27.144531 40.824219 27.199219 40.824219 27.269531 L 40.824219 27.378906 L 41.773438 27.378906 L 41.773438 27.152344 L 41.246094 27.152344 L 41.429688 26.984375 C 41.988281 26.464844 41.675781 25.710938 41.042969 26.050781 M 43.199219 26.042969 C 43.085938 26.089844 42.988281 26.234375 42.988281 26.347656 C 42.988281 26.441406 43.203125 26.414062 43.308594 26.308594 C 43.421875 26.195312 43.460938 26.191406 43.558594 26.289062 C 43.6875 26.417969 43.605469 26.554688 43.40625 26.554688 C 43.230469 26.554688 43.238281 26.761719 43.417969 26.796875 C 43.65625 26.847656 43.734375 27.074219 43.542969 27.160156 C 43.433594 27.207031 43.253906 27.121094 43.253906 27.019531 C 43.253906 26.980469 43.210938 26.964844 43.101562 26.964844 C 42.933594 26.964844 42.925781 26.984375 43.007812 27.175781 C 43.097656 27.394531 43.460938 27.488281 43.710938 27.359375 C 43.945312 27.238281 44 26.898438 43.808594 26.75 L 43.71875 26.679688 L 43.8125 26.578125 C 44.101562 26.242188 43.652344 25.847656 43.199219 26.042969 M 59.011719 26.238281 C 59.011719 26.484375 59.011719 26.488281 58.9375 26.421875 C 58.738281 26.246094 58.339844 26.347656 58.230469 26.609375 C 58.015625 27.113281 58.441406 27.59375 58.898438 27.359375 C 59 27.308594 59.011719 27.308594 59.011719 27.359375 C 59.011719 27.398438 59.050781 27.417969 59.144531 27.417969 L 59.277344 27.417969 L 59.277344 25.992188 L 59.011719 25.992188 L 59.011719 26.238281 M 65.351562 26.214844 L 65.351562 26.441406 L 65.230469 26.382812 C 64.765625 26.144531 64.339844 26.734375 64.632812 27.210938 C 64.753906 27.410156 65.082031 27.484375 65.269531 27.359375 C 65.34375 27.304688 65.351562 27.304688 65.351562 27.359375 C 65.351562 27.402344 65.390625 27.417969 65.503906 27.417969 L 65.65625 27.417969 L 65.65625 25.992188 L 65.351562 25.992188 L 65.351562 26.214844 M 68.246094 26.066406 C 67.859375 26.296875 67.921875 27.238281 68.332031 27.371094 C 68.78125 27.515625 69.015625 27.277344 69.015625 26.664062 C 69.015625 26.089844 68.660156 25.816406 68.246094 26.066406 M 69.425781 26.0625 C 69.300781 26.140625 69.222656 26.246094 69.222656 26.34375 C 69.222656 26.425781 69.484375 26.425781 69.515625 26.347656 C 69.578125 26.179688 69.871094 26.210938 69.871094 26.382812 C 69.871094 26.488281 69.773438 26.554688 69.625 26.554688 C 69.433594 26.554688 69.492188 26.761719 69.695312 26.8125 C 69.933594 26.871094 69.96875 27.105469 69.753906 27.171875 C 69.664062 27.203125 69.492188 27.101562 69.492188 27.019531 C 69.492188 26.984375 69.449219 26.964844 69.355469 26.964844 C 69.238281 26.964844 69.226562 26.976562 69.226562 27.070312 C 69.230469 27.515625 70.074219 27.53125 70.160156 27.085938 C 70.183594 26.949219 70.097656 26.703125 70.019531 26.703125 C 69.996094 26.703125 70.015625 26.660156 70.058594 26.605469 C 70.347656 26.238281 69.847656 25.808594 69.425781 26.0625 M 72.730469 26.042969 C 72.476562 26.15625 72.40625 26.5 72.613281 26.632812 C 72.632812 26.648438 72.617188 26.691406 72.570312 26.734375 C 72.34375 26.960938 72.46875 27.328125 72.804688 27.417969 C 73.273438 27.542969 73.699219 27.066406 73.390625 26.761719 C 73.304688 26.679688 73.300781 26.675781 73.371094 26.589844 C 73.648438 26.253906 73.179688 25.851562 72.730469 26.042969 M 38.832031 26.226562 C 38.757812 26.332031 38.621094 26.53125 38.527344 26.660156 C 38.40625 26.828125 38.359375 26.9375 38.359375 27.027344 L 38.359375 27.152344 L 39.003906 27.152344 L 39.003906 27.285156 C 39.003906 27.414062 39.007812 27.417969 39.15625 27.417969 C 39.304688 27.417969 39.308594 27.414062 39.308594 27.285156 C 39.308594 27.179688 39.320312 27.152344 39.382812 27.152344 C 39.445312 27.152344 39.457031 27.128906 39.457031 27.023438 C 39.457031 26.914062 39.445312 26.890625 39.382812 26.890625 C 39.3125 26.890625 39.308594 26.867188 39.308594 26.460938 L 39.308594 26.027344 L 39.136719 26.027344 C 38.976562 26.027344 38.960938 26.035156 38.832031 26.226562 M 39.6875 26.441406 L 39.6875 26.851562 L 39.8125 26.851562 C 39.886719 26.851562 39.960938 26.824219 40 26.777344 C 40.144531 26.613281 40.371094 26.703125 40.371094 26.929688 C 40.371094 27.152344 40.09375 27.257812 39.980469 27.078125 C 39.894531 26.941406 39.640625 26.972656 39.691406 27.117188 C 39.808594 27.453125 40.375 27.515625 40.5625 27.21875 C 40.789062 26.851562 40.582031 26.457031 40.179688 26.484375 L 39.953125 26.5 L 39.953125 26.253906 L 40.558594 26.253906 L 40.558594 26.027344 L 39.6875 26.027344 L 39.6875 26.441406 M 41.886719 26.140625 L 41.886719 26.253906 L 42.210938 26.253906 C 42.386719 26.253906 42.535156 26.261719 42.535156 26.273438 C 42.535156 26.28125 42.421875 26.535156 42.285156 26.835938 C 41.996094 27.480469 42.007812 27.417969 42.183594 27.417969 L 42.328125 27.417969 L 42.582031 26.824219 C 42.722656 26.5 42.835938 26.1875 42.835938 26.128906 L 42.835938 26.027344 L 41.886719 26.027344 L 41.886719 26.140625 M 70.324219 26.140625 L 70.324219 26.253906 L 70.648438 26.253906 C 71.023438 26.253906 71.015625 26.167969 70.691406 26.898438 C 70.4375 27.464844 70.441406 27.421875 70.621094 27.410156 L 70.761719 27.398438 L 71.015625 26.816406 C 71.15625 26.496094 71.273438 26.1875 71.273438 26.132812 L 71.273438 26.027344 L 70.324219 26.027344 L 70.324219 26.140625 M 71.390625 26.140625 L 71.390625 26.253906 L 72.027344 26.253906 L 71.882812 26.5625 C 71.804688 26.734375 71.6875 26.996094 71.625 27.144531 L 71.507812 27.417969 L 71.800781 27.417969 L 72.050781 26.832031 C 72.1875 26.511719 72.300781 26.199219 72.300781 26.140625 L 72.300781 26.027344 L 71.390625 26.027344 L 71.390625 26.140625 M 25.789062 26.734375 L 25.789062 27.417969 L 26.054688 27.417969 L 26.054688 27.152344 C 26.054688 26.8125 26.117188 26.808594 26.3125 27.144531 C 26.453125 27.386719 26.464844 27.398438 26.617188 27.410156 C 26.8125 27.421875 26.8125 27.421875 26.644531 27.152344 C 26.570312 27.035156 26.511719 26.929688 26.511719 26.917969 C 26.511719 26.90625 26.570312 26.839844 26.644531 26.765625 C 26.984375 26.433594 26.742188 26.097656 26.140625 26.070312 L 25.789062 26.054688 L 25.789062 26.734375 M 26.929688 26.179688 C 26.929688 26.285156 26.9375 26.289062 27.101562 26.289062 L 27.269531 26.289062 L 27.269531 27.417969 L 27.574219 27.417969 L 27.574219 26.289062 L 27.746094 26.289062 C 27.910156 26.289062 27.917969 26.285156 27.917969 26.179688 L 27.917969 26.066406 L 26.929688 26.066406 L 26.929688 26.179688 M 28.429688 26.117188 C 27.765625 26.402344 27.996094 27.417969 28.722656 27.414062 C 29.144531 27.414062 29.378906 27.171875 29.378906 26.742188 C 29.378906 26.214844 28.914062 25.910156 28.429688 26.117188 M 30.042969 26.742188 L 30.042969 27.417969 L 30.308594 27.417969 L 30.308594 26.5 L 30.613281 26.957031 C 30.902344 27.398438 30.917969 27.417969 31.046875 27.417969 L 31.183594 27.417969 L 31.183594 26.066406 L 30.917969 26.066406 L 30.90625 26.496094 L 30.898438 26.929688 L 30.613281 26.496094 C 30.332031 26.074219 30.324219 26.066406 30.183594 26.066406 L 30.042969 26.066406 L 30.042969 26.742188 M 45.96875 26.117188 C 45.308594 26.410156 45.535156 27.417969 46.261719 27.414062 C 46.546875 27.414062 46.898438 27.183594 46.898438 26.992188 C 46.898438 26.917969 46.597656 26.96875 46.503906 27.058594 C 46.265625 27.296875 45.875 27.097656 45.875 26.742188 C 45.875 26.382812 46.265625 26.1875 46.503906 26.421875 C 46.589844 26.507812 46.898438 26.5625 46.898438 26.496094 C 46.898438 26.203125 46.316406 25.964844 45.96875 26.117188 M 47.089844 26.738281 L 47.089844 27.417969 L 47.394531 27.417969 L 47.394531 27.152344 C 47.394531 26.769531 47.476562 26.808594 47.730469 27.3125 C 47.777344 27.402344 47.804688 27.417969 47.949219 27.417969 C 48.148438 27.417969 48.148438 27.433594 47.957031 27.128906 C 47.859375 26.96875 47.820312 26.871094 47.847656 26.859375 C 48.117188 26.769531 48.1875 26.417969 47.972656 26.207031 C 47.855469 26.089844 47.839844 26.085938 47.46875 26.070312 L 47.089844 26.058594 L 47.089844 26.738281 M 48.34375 26.742188 L 48.34375 27.417969 L 48.609375 27.417969 L 48.609375 26.066406 L 48.34375 26.066406 L 48.34375 26.742188 M 49.160156 26.128906 C 48.527344 26.460938 48.757812 27.410156 49.472656 27.414062 C 49.75 27.417969 50.089844 27.199219 50.089844 27.019531 C 50.089844 26.921875 49.816406 26.953125 49.714844 27.058594 C 49.445312 27.339844 49 27.003906 49.109375 26.601562 C 49.179688 26.339844 49.53125 26.234375 49.710938 26.421875 C 49.8125 26.53125 50.089844 26.558594 50.089844 26.460938 C 50.089844 26.179688 49.476562 25.960938 49.160156 26.128906 M 50.640625 26.121094 C 49.988281 26.46875 50.210938 27.417969 50.941406 27.417969 C 51.617188 27.417969 51.882812 26.566406 51.332031 26.164062 C 51.191406 26.0625 50.800781 26.039062 50.640625 26.121094 M 51.964844 26.136719 C 51.667969 26.316406 51.746094 26.710938 52.097656 26.816406 C 52.394531 26.90625 52.441406 26.9375 52.441406 27.023438 C 52.441406 27.203125 52.191406 27.242188 52.101562 27.078125 C 52.0625 27.007812 51.757812 26.960938 51.757812 27.023438 C 51.757812 27.226562 52.003906 27.417969 52.265625 27.417969 C 52.855469 27.417969 52.945312 26.828125 52.382812 26.640625 C 52.089844 26.546875 52.011719 26.457031 52.125 26.347656 C 52.203125 26.269531 52.316406 26.277344 52.394531 26.367188 C 52.476562 26.460938 52.746094 26.472656 52.746094 26.378906 C 52.746094 26.128906 52.238281 25.972656 51.964844 26.136719 M 53.429688 26.742188 L 53.429688 27.417969 L 53.695312 27.417969 L 53.695312 26.890625 L 53.921875 26.890625 C 54.300781 26.890625 54.5 26.636719 54.367188 26.320312 C 54.289062 26.136719 54.117188 26.066406 53.738281 26.066406 L 53.429688 26.066406 L 53.429688 26.742188 M 62.257812 26.117188 C 61.59375 26.402344 61.824219 27.417969 62.546875 27.417969 C 62.8125 27.417969 63.1875 27.167969 63.1875 26.992188 C 63.1875 26.917969 62.867188 26.972656 62.785156 27.058594 C 62.554688 27.304688 62.164062 27.105469 62.164062 26.742188 C 62.164062 26.378906 62.554688 26.175781 62.785156 26.421875 C 62.875 26.515625 63.1875 26.5625 63.1875 26.480469 C 63.1875 26.210938 62.585938 25.976562 62.257812 26.117188 M 74.015625 26.128906 C 73.417969 26.421875 73.574219 27.34375 74.234375 27.40625 C 74.554688 27.4375 74.957031 27.210938 74.957031 26.996094 C 74.957031 26.917969 74.652344 26.96875 74.5625 27.058594 C 74.375 27.246094 74.054688 27.164062 73.96875 26.90625 C 73.828125 26.488281 74.265625 26.128906 74.5625 26.421875 C 74.652344 26.511719 74.957031 26.5625 74.957031 26.488281 C 74.957031 26.191406 74.355469 25.960938 74.015625 26.128906 M 73.089844 26.273438 C 73.234375 26.375 73.148438 26.589844 72.960938 26.589844 C 72.792969 26.589844 72.714844 26.40625 72.832031 26.289062 C 72.921875 26.199219 72.976562 26.195312 73.089844 26.273438 M 68.652344 26.320312 C 68.820312 26.453125 68.792969 27.023438 68.613281 27.117188 C 68.417969 27.222656 68.273438 27.046875 68.273438 26.699219 C 68.273438 26.316406 68.441406 26.148438 68.652344 26.320312 M 54.058594 26.367188 C 54.210938 26.492188 54.09375 26.664062 53.859375 26.664062 L 53.695312 26.664062 L 53.695312 26.28125 L 53.847656 26.300781 C 53.933594 26.3125 54.027344 26.339844 54.058594 26.367188 M 26.429688 26.375 C 26.558594 26.5 26.449219 26.660156 26.210938 26.691406 L 26.054688 26.714844 L 26.054688 26.328125 L 26.21875 26.328125 C 26.308594 26.328125 26.402344 26.347656 26.429688 26.375 M 28.988281 26.429688 C 29.355469 26.824219 28.828125 27.421875 28.445312 27.042969 C 28.183594 26.785156 28.359375 26.328125 28.722656 26.328125 C 28.855469 26.328125 28.910156 26.347656 28.988281 26.429688 M 33.089844 26.386719 C 33.042969 26.417969 33.003906 26.425781 33.003906 26.40625 C 33.003906 26.382812 32.9375 26.367188 32.851562 26.367188 L 32.699219 26.367188 L 32.699219 27.417969 L 33.003906 27.417969 L 33.003906 27.046875 C 33.003906 26.652344 33.027344 26.589844 33.195312 26.589844 C 33.398438 26.589844 33.4375 26.664062 33.453125 27.054688 L 33.46875 27.417969 L 33.726562 27.417969 L 33.726562 27.066406 C 33.726562 26.679688 33.769531 26.589844 33.964844 26.589844 C 34.128906 26.589844 34.179688 26.710938 34.179688 27.085938 L 34.179688 27.417969 L 34.445312 27.417969 L 34.445312 27.007812 C 34.445312 26.394531 34.089844 26.105469 33.738281 26.433594 C 33.671875 26.5 33.664062 26.496094 33.539062 26.414062 C 33.390625 26.3125 33.210938 26.304688 33.089844 26.386719 M 36.191406 26.394531 C 35.839844 26.566406 35.839844 27.179688 36.191406 27.359375 C 36.464844 27.496094 36.953125 27.335938 36.953125 27.109375 C 36.953125 27.054688 36.695312 27.078125 36.578125 27.144531 C 36.445312 27.21875 36.261719 27.15625 36.238281 27.03125 C 36.226562 26.972656 36.265625 26.964844 36.609375 26.964844 L 36.992188 26.964844 L 36.988281 26.84375 C 36.984375 26.449219 36.5625 26.210938 36.191406 26.394531 M 37.546875 26.40625 C 37.464844 26.46875 37.445312 26.472656 37.445312 26.425781 C 37.445312 26.378906 37.40625 26.367188 37.292969 26.367188 L 37.144531 26.367188 L 37.144531 27.417969 L 37.445312 27.417969 L 37.445312 27.105469 C 37.445312 26.742188 37.5 26.628906 37.675781 26.628906 C 37.78125 26.628906 37.789062 26.621094 37.789062 26.476562 C 37.789062 26.300781 37.710938 26.277344 37.546875 26.40625 M 47.765625 26.375 C 47.894531 26.5 47.785156 26.660156 47.546875 26.691406 L 47.394531 26.714844 L 47.394531 26.328125 L 47.558594 26.328125 C 47.648438 26.328125 47.742188 26.347656 47.765625 26.375 M 51.175781 26.394531 C 51.496094 26.652344 51.34375 27.152344 50.945312 27.152344 C 50.617188 27.152344 50.441406 26.824219 50.601562 26.515625 C 50.703125 26.320312 51.007812 26.257812 51.175781 26.394531 M 54.976562 26.386719 C 54.917969 26.417969 54.875 26.425781 54.875 26.40625 C 54.875 26.382812 54.804688 26.367188 54.722656 26.367188 L 54.570312 26.367188 L 54.570312 27.417969 L 54.875 27.417969 L 54.875 27.085938 C 54.875 26.726562 54.921875 26.628906 55.09375 26.628906 C 55.164062 26.628906 55.175781 26.605469 55.175781 26.476562 C 55.175781 26.3125 55.144531 26.296875 54.976562 26.386719 M 55.546875 26.410156 C 55.203125 26.609375 55.203125 27.179688 55.554688 27.359375 C 55.828125 27.5 56.214844 27.382812 56.332031 27.121094 C 56.5625 26.621094 56.027344 26.136719 55.546875 26.410156 M 59.730469 26.398438 C 59.378906 26.578125 59.378906 27.179688 59.730469 27.359375 C 60.003906 27.496094 60.492188 27.335938 60.492188 27.109375 C 60.492188 27.054688 60.234375 27.078125 60.121094 27.140625 C 59.988281 27.21875 59.84375 27.175781 59.773438 27.042969 C 59.730469 26.96875 59.738281 26.964844 60.128906 26.964844 L 60.53125 26.964844 L 60.53125 26.84375 C 60.53125 26.453125 60.09375 26.207031 59.730469 26.398438 M 61.085938 26.40625 C 61.003906 26.46875 60.984375 26.472656 60.984375 26.425781 C 60.984375 26.382812 60.949219 26.367188 60.851562 26.367188 L 60.71875 26.367188 L 60.71875 27.417969 L 60.984375 27.417969 L 60.984375 27.097656 C 60.984375 26.742188 61.046875 26.628906 61.234375 26.628906 C 61.316406 26.628906 61.328125 26.613281 61.328125 26.476562 C 61.328125 26.300781 61.25 26.277344 61.085938 26.40625 M 63.609375 26.390625 C 63.242188 26.574219 63.238281 27.171875 63.605469 27.359375 C 63.941406 27.53125 64.359375 27.328125 64.421875 26.96875 C 64.496094 26.53125 64.011719 26.1875 63.609375 26.390625 M 66.128906 26.382812 C 65.785156 26.527344 65.714844 27.015625 65.996094 27.285156 C 66.222656 27.496094 66.679688 27.445312 66.8125 27.191406 L 66.871094 27.078125 L 66.707031 27.078125 C 66.601562 27.078125 66.519531 27.101562 66.492188 27.132812 C 66.425781 27.214844 66.277344 27.203125 66.1875 27.117188 C 66.054688 26.984375 66.09375 26.964844 66.492188 26.964844 L 66.871094 26.964844 L 66.871094 26.800781 C 66.871094 26.445312 66.488281 26.226562 66.128906 26.382812 M 67.0625 26.382812 C 66.972656 26.488281 67.042969 26.632812 67.179688 26.621094 C 67.324219 26.605469 67.402344 26.507812 67.339844 26.414062 C 67.285156 26.328125 67.125 26.308594 67.0625 26.382812 M 31.449219 26.738281 C 31.449219 27.328125 31.730469 27.601562 32.085938 27.359375 C 32.160156 27.304688 32.167969 27.304688 32.167969 27.359375 C 32.167969 27.402344 32.207031 27.417969 32.320312 27.417969 L 32.472656 27.417969 L 32.472656 26.367188 L 32.167969 26.367188 L 32.167969 26.679688 C 32.167969 27.050781 32.152344 27.109375 32.03125 27.15625 C 31.800781 27.242188 31.714844 27.105469 31.714844 26.65625 L 31.714844 26.367188 L 31.449219 26.367188 L 31.449219 26.738281 M 39.039062 26.628906 L 39.039062 26.890625 L 38.871094 26.890625 C 38.664062 26.890625 38.664062 26.90625 38.859375 26.609375 C 39.054688 26.3125 39.039062 26.3125 39.039062 26.628906 M 56.46875 26.382812 C 56.46875 26.398438 56.632812 26.847656 56.789062 27.265625 C 56.835938 27.386719 56.851562 27.398438 57.007812 27.410156 L 57.175781 27.417969 L 57.28125 27.144531 C 57.339844 26.996094 57.425781 26.765625 57.476562 26.636719 C 57.589844 26.34375 57.597656 26.367188 57.421875 26.367188 L 57.269531 26.367188 L 57.140625 26.746094 L 57.015625 27.128906 L 56.890625 26.746094 L 56.769531 26.367188 L 56.617188 26.367188 C 56.535156 26.367188 56.46875 26.375 56.46875 26.382812 M 57.71875 26.890625 L 57.71875 27.417969 L 57.988281 27.417969 L 57.988281 26.367188 L 57.71875 26.367188 L 57.71875 26.890625 M 36.640625 26.65625 C 36.71875 26.761719 36.695312 26.777344 36.460938 26.777344 C 36.207031 26.777344 36.160156 26.71875 36.316406 26.609375 C 36.414062 26.542969 36.566406 26.5625 36.640625 26.65625 M 60.179688 26.65625 C 60.261719 26.761719 60.234375 26.777344 59.976562 26.777344 C 59.738281 26.777344 59.730469 26.773438 59.773438 26.699219 C 59.851562 26.550781 60.074219 26.527344 60.179688 26.65625 M 66.515625 26.644531 C 66.65625 26.761719 66.625 26.785156 66.335938 26.769531 L 66.09375 26.757812 L 66.195312 26.65625 C 66.320312 26.53125 66.378906 26.527344 66.515625 26.644531 M 35.433594 26.664062 C 35.574219 26.804688 35.515625 27.085938 35.335938 27.15625 C 35.226562 27.195312 35.042969 27.121094 35 27.019531 C 34.886719 26.726562 35.21875 26.453125 35.433594 26.664062 M 56.011719 26.664062 C 56.222656 26.875 55.988281 27.28125 55.734375 27.148438 C 55.617188 27.085938 55.59375 27.042969 55.59375 26.875 C 55.59375 26.617188 55.835938 26.492188 56.011719 26.664062 M 58.917969 26.667969 C 59.015625 26.773438 59.011719 26.984375 58.910156 27.085938 C 58.734375 27.257812 58.464844 27.125 58.464844 26.867188 C 58.464844 26.625 58.761719 26.496094 58.917969 26.667969 M 64.058594 26.691406 C 64.148438 26.800781 64.15625 26.882812 64.09375 27.015625 C 64.007812 27.203125 63.742188 27.21875 63.644531 27.046875 C 63.484375 26.742188 63.851562 26.425781 64.058594 26.691406 M 65.277344 26.664062 C 65.375 26.761719 65.378906 27.003906 65.285156 27.089844 C 65.019531 27.324219 64.675781 26.96875 64.898438 26.691406 C 64.996094 26.570312 65.167969 26.558594 65.277344 26.664062 M 73.15625 26.894531 C 73.222656 26.964844 73.222656 26.980469 73.171875 27.070312 C 73.085938 27.21875 72.863281 27.234375 72.773438 27.097656 C 72.628906 26.882812 72.976562 26.699219 73.15625 26.894531 M 67.039062 27.210938 C 67.007812 27.324219 67.078125 27.417969 67.191406 27.417969 C 67.308594 27.417969 67.378906 27.324219 67.347656 27.210938 C 67.328125 27.132812 67.300781 27.117188 67.191406 27.117188 C 67.085938 27.117188 67.058594 27.132812 67.039062 27.210938 " fill-opacity="1" fill-rule="evenodd"/></g><path fill="#ec443c" d="M 34.761719 14.863281 C 34.761719 15.03125 34.769531 15.09375 34.777344 15.003906 C 34.785156 14.917969 34.785156 14.78125 34.777344 14.703125 C 34.769531 14.628906 34.761719 14.699219 34.761719 14.863281 M 62.976562 16.046875 C 62.976562 16.863281 62.980469 17.195312 62.988281 16.789062 C 62.996094 16.378906 62.996094 15.714844 62.988281 15.304688 C 62.980469 14.898438 62.976562 15.230469 62.976562 16.046875 M 62.515625 14.882812 C 62.515625 15.039062 62.523438 15.101562 62.53125 15.023438 C 62.539062 14.949219 62.539062 14.820312 62.53125 14.742188 C 62.523438 14.664062 62.515625 14.730469 62.515625 14.882812 M 56.332031 16.609375 C 56.332031 17.117188 56.335938 17.324219 56.34375 17.070312 C 56.351562 16.816406 56.351562 16.402344 56.34375 16.152344 C 56.335938 15.898438 56.332031 16.105469 56.332031 16.609375 M 40.992188 21.320312 C 40.992188 21.792969 41 21.984375 41.003906 21.738281 C 41.011719 21.496094 41.011719 21.105469 41.003906 20.875 C 41 20.644531 40.992188 20.84375 40.992188 21.320312 M 48.3125 22.039062 C 48.351562 22.046875 48.410156 22.046875 48.445312 22.039062 C 48.484375 22.03125 48.453125 22.023438 48.378906 22.023438 C 48.308594 22.023438 48.277344 22.03125 48.3125 22.039062 " fill-opacity="1" fill-rule="evenodd"/><path fill="#f03024" d="M 30.433594 14.085938 C 30.511719 14.09375 30.636719 14.09375 30.714844 14.085938 C 30.792969 14.078125 30.730469 14.070312 30.574219 14.070312 C 30.417969 14.070312 30.355469 14.078125 30.433594 14.085938 M 43.132812 14.085938 C 43.242188 14.09375 43.414062 14.09375 43.511719 14.085938 C 43.609375 14.078125 43.519531 14.070312 43.3125 14.074219 C 43.101562 14.074219 43.023438 14.078125 43.132812 14.085938 M 63.214844 14.085938 C 63.324219 14.09375 63.503906 14.09375 63.613281 14.085938 C 63.722656 14.078125 63.636719 14.074219 63.414062 14.074219 C 63.195312 14.074219 63.105469 14.078125 63.214844 14.085938 M 40.578125 16.179688 C 40.578125 16.941406 40.582031 17.25 40.585938 16.859375 C 40.59375 16.472656 40.59375 15.847656 40.585938 15.472656 C 40.582031 15.097656 40.578125 15.414062 40.578125 16.179688 " fill-opacity="1" fill-rule="evenodd"/></svg>